<?xml version="1.0" encoding="UTF-8"?>
<svg version="1.1" xmlns="http://www.w3.org/2000/svg" width="800" height="300" viewBox="0 0 800 300">
<path d="M0 0 C-1.56641751 4.30764815 -3.68336156 8.06171464 -6 12 C-3.69 12 -1.38 12 1 12 C0.67 12.99 0.34 13.98 0 15 C-1.85818359 15.0309375 -1.85818359 15.0309375 -3.75390625 15.0625 C-5.96794716 15.27410184 -5.96794716 15.27410184 -8 16 C-9.86145274 18.50322289 -10.83690939 20.18550224 -11.9375 23 C-12.22761963 23.67683838 -12.51773926 24.35367676 -12.81665039 25.05102539 C-14.86266155 30.03843788 -15.9049623 34.58285096 -16 40 C-11.02635579 37.93000319 -8.77032435 35.91239273 -6 31.3125 C-5.66315186 30.75594727 -5.32630371 30.19939453 -4.97924805 29.62597656 C-1.95674449 24.40769832 0.0867525 18.87939063 1.83398438 13.1184082 C2.48046875 11.140625 2.48046875 11.140625 4 8 C6.61328125 6.984375 6.61328125 6.984375 9 7 C10 8 10 8 10.1875 11.4375 C10 15 10 15 8 17 C10.64 17.33 13.28 17.66 16 18 C15.74020203 23.97535339 13.61936109 27.61707071 10.43359375 32.62109375 C8.8114189 35.31293159 7.79908257 37.96348622 7 41 C11.15356723 38.02798855 13.55896728 34.98724578 16.1875 30.625 C16.86167969 29.52414063 17.53585937 28.42328125 18.23046875 27.2890625 C19.87883899 24.22520435 21.01924345 21.32954275 22 18 C24.31 18 26.62 18 29 18 C30 21 30 21 29.3190918 22.71411133 C28.94953369 23.3305249 28.57997559 23.94693848 28.19921875 24.58203125 C27.79896484 25.26716797 27.39871094 25.95230469 26.98632812 26.65820312 C26.55771484 27.36912109 26.12910156 28.08003906 25.6875 28.8125 C22.91640482 33.45954524 20.4919686 37.74925968 19 43 C23.7155651 40.98382799 26.13302237 39.04726487 29 34.8125 C29.67804688 33.84183594 30.35609375 32.87117188 31.0546875 31.87109375 C32.25591846 30.09819264 33.45013609 28.32048834 34.6328125 26.53515625 C38.28110494 21.25372767 38.28110494 21.25372767 42.1875 19.875 C45 20 45 20 48 22 C46.35 23.65 44.7 25.3 43 27 C43.56847656 26.71125 44.13695312 26.4225 44.72265625 26.125 C49.78643712 23.69032739 53.38601033 22.52221364 59 23 C56.73800081 27.83031078 53.73539185 32.22054294 50.875 36.7109375 C49.12441042 39.78176338 47.98148015 42.61593822 47 46 C51.12686441 43.83177001 53.49415584 41.439094 56.3125 37.75 C60.44605101 32.53813133 64.93847578 27.03076211 71 24 C75.88612925 23.472471 79.77907815 23.31628376 84.125 25.75 C86 28 86 28 86 32 C85.34 32 84.68 32 84 32 C83.83125293 33.91648462 83.66508357 35.83319633 83.5 37.75 C83.4071875 38.81734375 83.314375 39.8846875 83.21875 40.984375 C83.04947717 43.3179218 83 45.66032182 83 48 C83.54914063 47.35998047 83.54914063 47.35998047 84.109375 46.70703125 C85.2890701 45.34476429 86.47766184 43.99018297 87.671875 42.640625 C88.92248835 41.22214409 90.16989848 39.80063661 91.39648438 38.36132812 C92.91511749 36.58065635 94.45598367 34.82117816 96 33.0625 C96.4856543 32.48282471 96.97130859 31.90314941 97.47167969 31.3059082 C100.24054815 28.19715698 101.57039067 27.10784984 105.75 26.05859375 C109 26 109 26 111 27 C111 27.99 111 28.98 111 30 C109.02 29.67 107.04 29.34 105 29 C104.20165933 32.91186926 103.85450132 35.50894196 105 39.375 C106.2430234 43.88095981 105.76339245 47.45059363 105 52 C105.48210937 51.4225 105.96421875 50.845 106.4609375 50.25 C107.09257813 49.5075 107.72421875 48.765 108.375 48 C109.00148438 47.2575 109.62796875 46.515 110.2734375 45.75 C111.12808594 44.88375 111.12808594 44.88375 112 44 C112.66 44 113.32 44 114 44 C113.40762384 47.57026711 112.02819396 49.45816451 109.625 52.125 C109.01914062 52.80820313 108.41328125 53.49140625 107.7890625 54.1953125 C105.2319867 56.77472084 103.72883991 57.97980787 100.0390625 58.08203125 C98.34910156 57.94861328 98.34910156 57.94861328 96.625 57.8125 C95.50351562 57.73644531 94.38203125 57.66039062 93.2265625 57.58203125 C89.82876932 56.96911214 87.82624068 55.93242958 85 54 C84.34 53.67 83.68 53.34 83 53 C79.09344894 54.56262042 77.08084435 57.03988045 74.625 60.3125 C69.03507127 67.73361228 62.36222824 73.80430965 52.859375 75.34765625 C48.20226056 75.55207158 44.94773575 74.36864145 41 72 C40.27866037 64.90682696 40.27866037 64.90682696 43.1875 61.25 C51.59624186 55.3875673 63.09543825 54.23199131 73 53 C73.66 49.7 74.32 46.4 75 43 C74.44570313 43.49371094 73.89140625 43.98742187 73.3203125 44.49609375 C72.59585938 45.13675781 71.87140625 45.77742188 71.125 46.4375 C70.40570312 47.07558594 69.68640625 47.71367187 68.9453125 48.37109375 C65.60001687 51.17227503 63.33155649 51.35359645 59 51 C57.125 49.6875 57.125 49.6875 56 48 C56 47.01 56 46.02 56 45 C55.154375 45.66 54.30875 46.32 53.4375 47 C49.53481348 49.27065397 47.43850516 49.51213521 43 49 C41 47 41 47 40.5 43.4375 C40.58061187 37.94581626 43.74128345 34.18977842 47 30 C39.5273184 33.58065993 34.56738981 39.14891529 30 46 C27.06640625 46.36328125 27.06640625 46.36328125 23.5625 46.3125 C22.40878906 46.30863281 21.25507813 46.30476563 20.06640625 46.30078125 C17 46 17 46 14 44 C13.67 43.01 13.34 42.02 13 41 C12.649375 41.495 12.29875 41.99 11.9375 42.5 C9.02709013 44.75322054 6.57033034 44.25966039 3 44 C2.01 43.505 2.01 43.505 1 43 C0.32568929 35.91973754 1.33262754 32.5703561 5.6875 26.9453125 C7.27965065 24.97663076 7.27965065 24.97663076 7 22 C5.68 22 4.36 22 3 22 C2.56429687 22.85722656 2.12859375 23.71445313 1.6796875 24.59765625 C-6.84746484 40.96905046 -6.84746484 40.96905046 -12.26953125 42.7421875 C-14.67161822 43.1224856 -16.59439134 43.37573316 -19 43 C-20.92741146 41.4386644 -21.89035406 40.21929188 -23 38 C-23.433125 38.474375 -23.86625 38.94875 -24.3125 39.4375 C-27.45635102 42.34847317 -30.78592417 42.18881682 -34.875 42.25 C-36.41800781 42.28867188 -36.41800781 42.28867188 -37.9921875 42.328125 C-41.68879068 41.9248592 -44.35228721 40.64771279 -47 38 C-47.375 35.3125 -47.375 35.3125 -47 32 C-45 29.4375 -45 29.4375 -43.625 27.97265625 C-40.62586741 24.33188231 -38.41861699 20.09913988 -36.0625 16.0234375 C-33.96924769 12.95491991 -32.07974436 11.05316291 -29 9 C-26.1875 8.75 -26.1875 8.75 -24 9 C-23.67 9.99 -23.34 10.98 -23 12 C-24.65 12.33 -26.3 12.66 -28 13 C-29.22709242 17.57370813 -28.77741997 19.79254825 -26.703125 23.98828125 C-25.35103487 27.85676134 -25.78038303 31.95742104 -26 36 C-21.72570102 29.22868786 -18.16073701 22.35640562 -15 15 C-16.32 14.67 -17.64 14.34 -19 14 C-18.67 13.01 -18.34 12.02 -18 11 C-16.02 11 -14.04 11 -12 11 C-11.7525 10.278125 -11.505 9.55625 -11.25 8.8125 C-9.87122087 5.71024696 -8.29054328 3.49877449 -6 1 C-3 0 -3 0 0 0 Z M-35 20 C-37.30742182 22.37372705 -38.84725299 24.90292004 -40 28 C-39.84585055 31.51062947 -39.07355643 34.66308574 -38 38 C-36.04105639 37.88693303 -36.04105639 37.88693303 -34 37 C-31.74095811 33.15408512 -31.89746484 30.03306994 -32.375 25.6875 C-32.48585938 24.61886719 -32.59671875 23.55023438 -32.7109375 22.44921875 C-32.80632812 21.64097656 -32.90171875 20.83273438 -33 20 C-33.66 20 -34.32 20 -35 20 Z M72.68359375 29.55859375 C65.68650091 35.38357817 65.68650091 35.38357817 61 43 C61.30378052 45.68993053 61.30378052 45.68993053 62 48 C69.03405092 45.72427764 73.36984062 41.28296816 77 35 C77 34.34 77 33.68 77 33 C78.98 32.67 80.96 32.34 83 32 C82.67 30.68 82.34 29.36 82 28 C78.04512969 26.60416342 76.03868476 27.05752591 72.68359375 29.55859375 Z M98 35 C93.01133272 39.96838817 93.01133272 39.96838817 90.76171875 46.37890625 C91.04687301 48.79636252 91.04687301 48.79636252 92 52 C93.32 52.33 94.64 52.66 96 53 C98.91832543 48.93272755 99.33790436 46.15084383 99.1875 41.1875 C99.14689453 39.44533203 99.14689453 39.44533203 99.10546875 37.66796875 C99.07066406 36.78753906 99.03585937 35.90710938 99 35 C98.67 35 98.34 35 98 35 Z M46 64 C43.63019987 66.95377498 43.63019987 66.95377498 44 71 C49.79574647 72.63792835 53.17263285 71.59223615 58.421875 68.7421875 C62.84433956 65.75367357 66.53724285 62.04824749 70 58 C70 57.67 70 57.34 70 57 C61.4918925 56.68834771 52.97367654 59.14874675 46 64 Z " fill="#000000" transform="translate(477,110)"/>
<path d="M0 0 C-0.65355469 0.99966797 -0.65355469 0.99966797 -1.3203125 2.01953125 C-5.52626128 8.5287377 -9.38158931 15.14755192 -13 22 C-12.05898438 21.95746094 -11.11796875 21.91492188 -10.1484375 21.87109375 C-7 22 -7 22 -4.625 24.0625 C-2.54243682 27.82713343 -2.43078135 29.73086009 -3 34 C-5.12144716 40.29939922 -8.0174252 45.52872373 -13.1875 49.8125 C-17.12407036 51.47460748 -20.79567717 51.90729125 -25 51 C-27.0625 48.5 -27.0625 48.5 -28 46 C-28.61875 46.804375 -29.2375 47.60875 -29.875 48.4375 C-32.38918482 51.4693111 -33.07910599 51.88243906 -36.9375 52.375 C-37.948125 52.25125 -38.95875 52.1275 -40 52 C-41.875 49.5 -41.875 49.5 -43 47 C-43.804375 47.804375 -44.60875 48.60875 -45.4375 49.4375 C-49 53 -49 53 -51.9375 53.25 C-52.948125 53.1675 -53.95875 53.085 -55 53 C-57 50 -57 50 -57 46 C-61.06206218 45.42399272 -61.06206218 45.42399272 -65 46 C-66.67418076 47.9046524 -67.70096515 49.77290504 -68.796875 52.0546875 C-70.26018955 54.42069609 -71.4169892 55.04241995 -74 56 C-77.125 56.3125 -77.125 56.3125 -80 56 C-81.9451 53.08235 -82.45276317 51.37462715 -83 48 C-88.78815876 49.04186858 -91.19048878 50.76609617 -94.73828125 55.44140625 C-96 57 -96 57 -98 58 C-104.34117647 58.46117647 -104.34117647 58.46117647 -106.875 56.6875 C-109.48347924 52.77478114 -109.54871431 48.52689306 -109 44 C-107.33191349 38.03477758 -105.19506989 32.66016287 -100 29 C-96.26981362 27.81616839 -93.15699339 27.40667005 -89.5625 29.25 C-86.41190153 32.77867028 -86.84197678 36.49633833 -87 41 C-87.5 43.4375 -87.5 43.4375 -88 45 C-86.06890419 45.04289755 -86.06890419 45.04289755 -84 44 C-81.1708294 39.14999326 -80.70939871 35.38182528 -80.9921875 29.8203125 C-80.99605469 28.91925781 -80.99605469 28.91925781 -81 28 C-80 27 -80 27 -76.4375 26.9375 C-75.303125 26.958125 -74.16875 26.97875 -73 27 C-72.51967344 35.71703754 -73.92686581 43.54704214 -76 52 C-71.90971536 50.26420694 -70.59775632 48.41870835 -68.73828125 44.484375 C-67.57891567 40.58301781 -67.90031556 36.82260347 -68.05859375 32.7890625 C-67.98020932 29.05796355 -67.04271099 27.06406648 -65 24 C-63.35 24 -61.7 24 -60 24 C-60.48320848 30.2054142 -61.33318124 35.99945246 -63 42 C-61.68 42 -60.36 42 -59 42 C-58.69707031 41.34773438 -58.39414062 40.69546875 -58.08203125 40.0234375 C-51.32664234 25.93065693 -51.32664234 25.93065693 -44 23 C-39.00009315 22.49439144 -35.2616015 22.15893233 -31 25 C-31.495 26.485 -31.495 26.485 -32 28 C-32.825 27.525625 -33.65 27.05125 -34.5 26.5625 C-37.85342484 25.66073155 -37.85342484 25.66073155 -40.00390625 27.07421875 C-45.34199857 31.41964874 -48.73070941 36.51174662 -51 43 C-51.4258991 46.42154456 -51.4258991 46.42154456 -51 49 C-46.26480994 45.77973963 -44.21864505 42.30201144 -41.75 37.3125 C-38.05857143 30.05857143 -38.05857143 30.05857143 -37 29 C-34.66702567 28.95907063 -32.33294775 28.95758277 -30 29 C-30.34933594 29.70125 -30.69867188 30.4025 -31.05859375 31.125 C-33.81386459 36.86970068 -35.63931153 41.62783702 -36 48 C-30.30754923 43.40663809 -28.16341078 37.27397406 -25.3125 30.6875 C-21.73302411 22.66521034 -18.08356728 14.86493882 -13.375 7.4375 C-12.96161377 6.78418701 -12.54822754 6.13087402 -12.12231445 5.45776367 C-8.46996256 -0.12172786 -6.56395864 -0.12155479 0 0 Z M-13 24 C-18.49254783 28.82358367 -21.36955349 36.20549324 -22.31640625 43.40625 C-22.34827162 45.44785096 -22.34827162 45.44785096 -22 48 C-19.08417019 48.30784241 -19.08417019 48.30784241 -17.53515625 46.85546875 C-13.1618701 41.90217117 -10.38862721 36.4930293 -9 30 C-9.32781868 27.25375635 -9.32781868 27.25375635 -10 25 C-10.99 24.67 -11.98 24.34 -13 24 Z M-97 33.5625 C-101.30867901 38.81370255 -103.27649056 45.20623184 -103 52 C-102.34 52.99 -101.68 53.98 -101 55 C-97.7855626 54.77039733 -96.91897216 53.91240233 -94.6875 51.5 C-92.49356288 46.9496119 -93.01212929 43.83197628 -94 39 C-93.01 38.34 -92.02 37.68 -91 37 C-91.33 35.35 -91.66 33.7 -92 32 C-95.02898657 31.69217798 -95.02898657 31.69217798 -97 33.5625 Z " fill="#000000" transform="translate(384,100)"/>
<path d="M0 0 C2.7605612 2.08725359 3.72275109 3.54371362 4.37109375 6.94921875 C4.95979785 16.8858304 0.18263771 26.48440829 -6 34 C-10.16496777 38.28158686 -14.41194686 41.73816897 -20 44 C-20.66 44 -21.32 44 -22 44 C-22.18175781 44.99580078 -22.18175781 44.99580078 -22.3671875 46.01171875 C-23.22547708 50.53424459 -24.03971311 54.79938524 -26 59 C-24.39125 58.9071875 -24.39125 58.9071875 -22.75 58.8125 C-12.78444543 58.84771397 -1.20138823 62.06437613 6.140625 69.03125 C11.88731527 75.47875616 11.88731527 75.47875616 12.25 80.375 C11.99211426 84.11434329 11.76849669 85.52812796 9 88 C7.68 88 6.36 88 5 88 C5.391875 86.80375 5.78375 85.6075 6.1875 84.375 C6.96291837 81.18904192 7.02219322 80.07545694 6.0625 76.8125 C1.53162562 70.63403493 -4.60650162 67.60075743 -12 66 C-17.64325836 65.13488729 -23.31919157 64.55438429 -29 64 C-29.26296875 64.74121094 -29.5259375 65.48242188 -29.796875 66.24609375 C-32.79964824 73.11932469 -38.90584024 78.9623361 -45.875 81.75 C-54.47619048 82.76190476 -54.47619048 82.76190476 -59 80.5 C-61.28238669 77.64701664 -61.73432442 75.67280362 -61.4765625 72.0234375 C-60.27887253 66.93816368 -56.8065331 64.55836907 -52.75 61.75 C-46.11951278 58.66605246 -38.1889085 58.62086028 -31 58 C-30.01 53.71 -29.02 49.42 -28 45 C-30.5059375 45.0928125 -30.5059375 45.0928125 -33.0625 45.1875 C-39.50285364 45.17094382 -43.56531829 44.30654057 -48.375 39.75 C-50.69290007 35.82739988 -51.43477806 32.56316835 -50.6640625 28.01953125 C-48.87714166 22.02058273 -44.94486731 18.62203657 -40 15 C-37.04335481 13.5216774 -34.25770263 13.93967217 -31 14 C-31 14.66 -31 15.32 -31 16 C-32.0725 16.391875 -33.145 16.78375 -34.25 17.1875 C-38.58198545 19.02903227 -40.90058741 21.80117481 -43 26 C-43.4731301 30.45207671 -43.83310261 34.55112589 -41.5625 38.5 C-37.07744272 41.12539938 -32.16486034 42 -27 42 C-26.82984375 40.76765625 -26.6596875 39.5353125 -26.484375 38.265625 C-22.5228157 10.74629002 -22.5228157 10.74629002 -13.375 2.6875 C-9.00814066 -0.41526848 -5.2777507 -0.79681849 0 0 Z M-8.4375 7 C-13.50640647 12.93432953 -15.79577572 19.80363343 -17.8125 27.25 C-18.04130859 28.03890625 -18.27011719 28.8278125 -18.50585938 29.640625 C-18.71662109 30.40375 -18.92738281 31.166875 -19.14453125 31.953125 C-19.33378174 32.63536133 -19.52303223 33.31759766 -19.71801758 34.02050781 C-20.03999174 36.28073854 -19.68446266 37.83942884 -19 40 C-9.95988568 34.70822577 -4.28644832 26.85934495 -1 17 C-0.88259878 15.315429 -0.82493455 13.62611123 -0.8125 11.9375 C-0.79123047 10.62072266 -0.79123047 10.62072266 -0.76953125 9.27734375 C-0.77770564 6.80074945 -0.77770564 6.80074945 -3 5 C-6.13896324 4.68284169 -6.13896324 4.68284169 -8.4375 7 Z M-56 71 C-57.49113354 73.5908295 -57.49113354 73.5908295 -58 76 C-57.009245 77.66641006 -57.009245 77.66641006 -55 79 C-50.47402619 79.51937404 -48.05851055 79.49685189 -43.9375 77.5625 C-40.03710549 74.16002819 -36.83010049 70.3372546 -34 66 C-34 65.34 -34 64.68 -34 64 C-41.67022842 64 -49.83249436 66.44140888 -56 71 Z " fill="#000000" transform="translate(278,94)"/>
<path d="M0 0 C0.763125 0.20625 1.52625 0.4125 2.3125 0.625 C4.08680379 7.26089617 1.56797338 12.56824215 -1.68408203 18.41748047 C-2.79895062 20.30064431 -3.94844479 22.15478143 -5.125 24 C-5.49608887 24.58257568 -5.86717773 25.16515137 -6.24951172 25.76538086 C-8.10188908 28.5657206 -9.97502223 30.90461641 -12.38671875 33.25 C-14.76833153 35.708439 -15.46083881 36.94653951 -16.0625 40.25 C-16.21460938 41.00539062 -16.36671875 41.76078125 -16.5234375 42.5390625 C-16.83910353 44.81958938 -16.83910353 44.81958938 -15.6875 47.625 C-13.08120105 47.26146045 -11.94989475 46.92654789 -10.1953125 44.91015625 C-9.51082031 43.80994141 -9.51082031 43.80994141 -8.8125 42.6875 C-8.0390625 41.47320312 -8.0390625 41.47320312 -7.25 40.234375 C-6.21916676 38.51288349 -5.21819466 36.77310879 -4.25 35.015625 C-1.01588176 29.21530424 2.20921624 24.61196353 8.3125 21.625 C12.1875 21.125 12.1875 21.125 15.3125 21.625 C15.9725 22.285 16.6325 22.945 17.3125 23.625 C17.23277217 27.85057502 16.77697944 30.04108299 14.125 33.375 C9.85601572 36.79018743 6.83878747 38.625 1.3125 38.625 C1.3125 41.925 1.3125 45.225 1.3125 48.625 C7.35830497 47.43954805 9.62870747 45.80222194 13.3125 40.625 C14.04438192 39.50176455 14.773691 38.37684705 15.5 37.25 C16.098125 36.38375 16.69625 35.5175 17.3125 34.625 C17.9725 34.625 18.6325 34.625 19.3125 34.625 C18.30935472 41.30476742 14.87757626 46.68694238 9.5 50.75 C5.21484602 51.92631678 1.5881625 51.85820816 -2.6875 50.625 C-5.25 48.5625 -5.25 48.5625 -6.6875 46.625 C-7.1825 47.264375 -7.6775 47.90375 -8.1875 48.5625 C-11.54241014 51.33030087 -14.38943057 51.80995791 -18.6875 51.625 C-21.1875 50.75 -21.1875 50.75 -22.6875 48.625 C-24.72630079 35.25952813 -16.19489866 15.46500904 -8.5 4.875 C-4.19146211 -0.58485518 -4.19146211 -0.58485518 0 0 Z M-1.6875 5.625 C-5.64492848 11.7596545 -8.74459049 17.56917074 -10.6875 24.625 C-7.1288494 21.47726112 -5.3341668 18.30725009 -3.375 14 C-2.84261719 12.85273437 -2.31023437 11.70546875 -1.76171875 10.5234375 C-1.40722656 9.56695312 -1.05273438 8.61046875 -0.6875 7.625 C-1.0175 6.965 -1.3475 6.305 -1.6875 5.625 Z M-11.6875 24.625 C-10.6875 26.625 -10.6875 26.625 -10.6875 26.625 Z M12.3125 24.625 C7.79201843 27.76422331 5.79704089 30.83995828 3.3125 35.625 C6.97378752 35.41578357 8.79198819 34.47641649 11.1875 31.8125 C13.58300222 28.93112453 13.58300222 28.93112453 13.125 26.25 C12.856875 25.71375 12.58875 25.1775 12.3125 24.625 Z " fill="#000000" transform="translate(404.6875,99.375)"/>
<path d="M0 0 C2.625 0.375 2.625 0.375 5 1 C5.625 2.875 5.625 2.875 6 5 C4 7 4 7 1.375 7.125 C0.59125 7.08375 -0.1925 7.0425 -1 7 C-1.625 4.625 -1.625 4.625 -2 2 C-1.34 1.34 -0.68 0.68 0 0 Z " fill="#000000" transform="translate(506,117)"/>
</svg>
